<?xml version="1.0" standalone="no"?>
<!DOCTYPE svg PUBLIC "-//W3C//DTD SVG 20010904//EN"
 "http://www.w3.org/TR/2001/REC-SVG-20010904/DTD/svg10.dtd">
<svg version="1.0" xmlns="http://www.w3.org/2000/svg"
 width="400.000000pt" height="400.000000pt" viewBox="0 0 400.000000 400.000000"
 preserveAspectRatio="xMidYMid meet">

<g transform="translate(0.000000,400.000000) scale(0.100000,-0.100000)"
fill="#000000" stroke="none">
<path d="M218 2745 c-14 -8 -36 -30 -47 -49 -21 -34 -21 -37 -19 -704 l3 -671
29 -30 c15 -16 40 -34 55 -40 18 -8 203 -10 596 -9 526 3 570 4 573 20 2 12
-8 20 -38 29 -69 21 -98 79 -69 142 11 24 23 32 82 56 l27 11 0 630 0 630
-582 0 c-489 -1 -587 -3 -610 -15z m1142 -620 l0 -595 -520 0 -520 0 0 595 0
595 520 0 520 0 0 -595z m-1090 -2 l-1 -588 -34 -16 -35 -16 0 575 0 576 27
28 c15 15 30 28 35 28 4 0 8 -264 8 -587z m1000 -640 c0 -5 -7 -17 -15 -27
-19 -26 -19 -99 0 -136 l16 -30 -507 0 -506 0 -29 29 c-39 39 -41 97 -3 134
14 14 35 28 47 30 40 8 997 7 997 0z"/>
<path d="M656 2550 c-40 -12 -86 -59 -86 -87 0 -13 5 -23 10 -23 6 0 10 9 10
19 0 28 47 61 85 61 39 0 85 -34 85 -61 0 -41 -51 -109 -81 -109 -15 0 -19 11
-21 67 -2 42 -8 68 -15 71 -10 3 -13 -32 -13 -152 0 -132 2 -156 15 -156 12 0
15 14 15 70 0 55 3 70 15 70 24 0 46 -45 66 -131 23 -97 42 -136 74 -151 24
-11 25 -16 25 -98 0 -61 4 -91 13 -99 23 -18 27 -2 27 98 0 89 2 98 25 120 37
34 33 75 -10 99 -19 11 -19 11 4 12 35 0 95 -38 116 -72 26 -44 26 -137 0
-152 -10 -6 -41 -31 -67 -55 -49 -45 -62 -83 -36 -109 19 -19 62 -14 87 9 23
22 71 113 71 136 0 6 20 15 45 19 55 8 55 30 1 27 l-36 -2 0 47 c0 134 -124
218 -247 167 -19 -8 -37 -15 -38 -15 -1 0 -8 19 -13 43 -6 23 -20 58 -30 78
l-19 37 33 32 c37 35 52 88 38 128 -18 49 -90 79 -148 62z m184 -435 c0 -53
-6 -57 -25 -12 -9 22 -10 36 -3 45 19 23 28 12 28 -33z m67 -1 c3 -8 -2 -23
-11 -32 -15 -15 -16 -14 -16 16 0 33 16 43 27 16z m99 -232 c-8 -24 -51 -72
-66 -72 -21 0 -9 30 26 65 38 38 50 40 40 7z"/>
<path d="M2497 2304 c-4 -4 -7 -31 -7 -60 l0 -52 -30 15 c-39 19 -84 9 -110
-24 -15 -19 -20 -41 -20 -85 0 -52 3 -63 29 -89 33 -32 58 -36 101 -14 25 13
29 13 34 -1 4 -9 15 -14 28 -12 23 3 23 5 23 163 0 153 -1 160 -20 163 -12 2
-24 0 -28 -4z m-21 -159 c19 -29 14 -93 -8 -107 -21 -13 -55 -9 -69 8 -21 25
-17 93 6 110 28 21 53 17 71 -11z"/>
<path d="M2614 2296 c-11 -29 0 -51 26 -51 21 0 25 5 25 30 0 24 -5 31 -23 33
-13 2 -24 -3 -28 -12z"/>
<path d="M3151 2292 c-13 -25 8 -56 35 -50 29 5 27 62 -3 66 -13 2 -26 -4 -32
-16z"/>
<path d="M1566 2279 c-7 -22 -2 -287 6 -294 4 -4 19 -4 33 -1 26 7 27 9 23 64
l-3 57 35 0 c34 0 36 -2 56 -60 18 -52 25 -60 49 -63 27 -3 28 -2 21 30 -3 18
-16 54 -29 79 l-22 46 22 17 c29 21 31 74 4 107 -17 21 -29 24 -105 28 -66 2
-87 0 -90 -10z m149 -79 c0 -34 -1 -35 -42 -38 -40 -3 -43 -1 -43 22 0 13 -3
32 -6 41 -6 14 0 16 42 13 49 -3 49 -3 49 -38z"/>
<path d="M3003 2262 c-17 -2 -23 -10 -23 -28 0 -15 -6 -24 -15 -24 -8 0 -15
-9 -15 -20 0 -11 7 -20 15 -20 12 0 15 -14 15 -62 0 -35 6 -74 13 -88 24 -48
122 -54 115 -7 -2 17 -10 22 -33 22 l-30 0 -3 68 -3 67 29 0 c17 0 32 6 35 14
8 19 -1 26 -35 26 -23 0 -28 4 -28 24 0 29 -6 33 -37 28z"/>
<path d="M1890 2203 c-65 -33 -76 -148 -19 -199 32 -29 121 -27 151 4 23 23
23 23 4 37 -17 13 -22 13 -36 0 -23 -21 -64 -19 -84 4 -28 30 -11 41 65 41
l69 0 0 38 c0 72 -79 112 -150 75z m90 -48 c18 -22 3 -35 -39 -35 -45 0 -54 7
-40 31 12 23 61 25 79 4z"/>
<path d="M2123 2206 c-35 -16 -42 -36 -19 -55 10 -9 16 -8 26 4 16 20 69 20
77 0 7 -21 2 -25 -49 -36 -56 -13 -78 -34 -78 -75 0 -54 68 -84 115 -50 16 12
22 12 42 -1 25 -17 63 -9 63 12 0 8 -6 18 -14 22 -9 5 -15 33 -18 80 -2 46 -9
78 -18 88 -23 22 -90 27 -127 11z m87 -136 c0 -23 -6 -33 -26 -42 -22 -10 -28
-10 -39 6 -19 25 -10 42 28 54 18 5 33 10 35 11 1 1 2 -13 2 -29z"/>
<path d="M2780 2202 c-73 -36 -77 -160 -7 -202 18 -11 45 -20 60 -20 53 0 108
43 91 71 -8 14 -34 11 -50 -6 -22 -22 -60 -18 -78 7 -46 66 19 153 76 102 14
-14 20 -14 33 -4 24 20 17 40 -20 56 -45 18 -62 18 -105 -4z"/>
<path d="M3323 2206 c-40 -18 -55 -47 -55 -106 0 -57 13 -85 52 -105 96 -50
193 37 161 145 -19 65 -92 95 -158 66z m91 -58 c20 -29 20 -82 0 -102 -36 -37
-94 -4 -94 54 0 36 27 70 55 70 13 0 31 -10 39 -22z"/>
<path d="M3628 2205 c-16 -9 -28 -11 -28 -5 0 5 -14 10 -30 10 l-31 0 3 -112
3 -113 25 0 c24 0 25 2 30 83 5 87 13 102 57 102 27 0 32 -16 35 -115 3 -67 4
-70 28 -70 25 0 25 0 25 97 0 74 -4 101 -15 112 -23 23 -71 28 -102 11z"/>
<path d="M2610 2101 c0 -63 4 -112 10 -116 6 -3 19 -3 30 0 18 6 20 15 20 116
l0 109 -30 0 -30 0 0 -109z"/>
<path d="M3152 2098 l3 -113 25 0 25 0 3 113 3 112 -31 0 -31 0 3 -112z"/>
<path d="M2095 1830 c-3 -5 -1 -10 4 -10 6 0 11 5 11 10 0 6 -2 10 -4 10 -3 0
-8 -4 -11 -10z"/>
<path d="M1952 1818 c-27 -27 -11 -58 38 -73 40 -12 51 -24 39 -46 -10 -20
-53 -26 -64 -9 -10 16 -25 12 -19 -5 8 -21 44 -28 77 -16 21 8 27 17 27 41 0
24 -6 33 -27 41 -48 19 -58 26 -61 42 -4 21 32 31 59 17 17 -10 20 -9 17 2 -6
17 -70 22 -86 6z"/>
<path d="M2619 1813 c-12 -15 -12 -16 6 -9 39 17 60 12 63 -13 3 -18 -7 -33
-39 -61 -53 -45 -49 -70 10 -70 22 0 43 5 46 10 4 6 -10 10 -34 10 -23 0 -41
4 -41 8 0 5 18 23 40 41 41 33 51 66 28 89 -17 17 -63 15 -79 -5z"/>
<path d="M2767 1812 c-25 -27 -23 -106 3 -132 46 -46 100 -9 100 68 0 35 -5
54 -18 65 -24 22 -65 21 -85 -1z m67 -5 c23 -16 27 -87 7 -111 -16 -19 -42
-21 -59 -4 -19 19 -15 105 6 117 22 14 25 13 46 -2z"/>
<path d="M2924 1815 c-19 -14 -18 -14 4 -15 20 0 22 -5 22 -60 0 -53 -2 -60
-20 -60 -11 0 -20 -4 -20 -10 0 -12 57 -12 85 0 19 8 19 9 -2 9 -22 1 -23 5
-23 76 0 80 -7 89 -46 60z"/>
<path d="M3040 1820 c-21 -13 -5 -23 18 -11 28 15 52 4 52 -23 0 -14 -15 -35
-40 -55 -53 -42 -54 -71 -2 -71 20 0 44 5 52 10 11 7 4 10 -27 10 -24 0 -43 4
-43 9 0 5 18 24 40 41 41 32 51 65 28 88 -14 14 -57 16 -78 2z"/>
<path d="M2090 1730 c0 -33 4 -60 10 -60 6 0 10 27 10 60 0 33 -4 60 -10 60
-6 0 -10 -27 -10 -60z"/>
<path d="M2150 1728 c0 -32 4 -58 10 -58 6 0 10 20 10 45 0 35 5 47 21 55 32
18 49 -4 49 -62 0 -30 4 -47 10 -43 13 8 13 66 0 99 -8 23 -14 25 -55 24 l-45
-2 0 -58z"/>
<path d="M2306 1768 c-22 -31 -20 -64 4 -88 23 -23 50 -26 68 -8 19 19 14 29
-8 16 -28 -18 -54 1 -58 40 -4 38 26 59 59 41 17 -9 20 -8 17 3 -3 7 -18 14
-35 16 -23 2 -35 -3 -47 -20z"/>
<path d="M2437 1772 c-47 -51 23 -148 71 -100 19 19 14 29 -8 16 -15 -9 -25
-10 -37 -2 -33 20 -26 34 16 34 46 0 59 16 41 49 -14 27 -61 28 -83 3z m61 -4
c20 -20 14 -28 -23 -28 -38 0 -46 13 -17 29 22 13 26 13 40 -1z"/>
</g>
</svg>
